<svg xmlns="http://www.w3.org/2000/svg" xmlns:xlink="http://www.w3.org/1999/xlink" viewBox="0 0 400 400"><defs><style>.cls-1{fill:url(#radial-gradient);}.cls-2{fill:#fff;}</style><radialGradient id="radial-gradient" cx="200" cy="211.59" r="235.45" gradientUnits="userSpaceOnUse"><stop offset="0" stop-color="#4b0083"/><stop offset="0.49" stop-color="#4a0081"/><stop offset="0.67" stop-color="#46007a"/><stop offset="0.79" stop-color="#3f006f"/><stop offset="0.89" stop-color="#36005e"/><stop offset="0.98" stop-color="#290048"/><stop offset="1" stop-color="#260042"/></radialGradient></defs><g id="logo"><path class="cls-1" d="M297.32,88.5H102.68C46,88.5,0,132.05,0,185.77H0C0,239.48,46,283,102.68,283h110a11.32,11.32,0,0,1,9.8,5.65L246,329a11.34,11.34,0,0,0,19.8-.34L287,289a11.32,11.32,0,0,1,10-6h.32C354,283,400,239.48,400,185.77h0C400,132.05,354,88.5,297.32,88.5Z"/><g id="Microphone"><path id="Path_521" data-name="Path 521" class="cls-2" d="M280.87,231.75a4,4,0,0,1-4-4V208a4,4,0,1,1,7.92,0v19.8A4,4,0,0,1,280.87,231.75Z"/><path id="Path_522" data-name="Path 522" class="cls-2" d="M278.89,213.93a35.87,35.87,0,0,0,5.94-.56V208a4,4,0,0,0-.91-2.46,28.37,28.37,0,0,1-5,.48h-1.35a3.84,3.84,0,0,0-.63,2.06v5.82Z"/><path id="Path_523" data-name="Path 523" class="cls-2" d="M265,180.26V152.53a15.85,15.85,0,0,1,31.69,0v27.73a15.85,15.85,0,0,1-31.69,0Zm31.69,47.53a4,4,0,0,0-4-4H269a4,4,0,0,0,0,7.92h23.77A4,4,0,0,0,296.71,227.79Zm19.8-51.49a4,4,0,1,0-7.92,0,27.73,27.73,0,1,1-55.45,0,4,4,0,1,0-7.92,0,35.65,35.65,0,1,0,71.29,0Z"/></g><path class="cls-2" d="M116.52,231.75a89.5,89.5,0,0,1-11.42-.65,59.09,59.09,0,0,1-9.44-2,50.25,50.25,0,0,1-8.45-3.4V205.61a39.81,39.81,0,0,0,12.92,7.32,41.78,41.78,0,0,0,13.66,2.48c3.81,0,6.72-.76,8.75-2.28s3-3.86,3-7a6.82,6.82,0,0,0-2.8-5.68,26.6,26.6,0,0,0-7.39-3.79q-4.59-1.64-10.3-3.73a43.61,43.61,0,0,1-7.08-3,24.35,24.35,0,0,1-6.21-4.64,20.75,20.75,0,0,1-4.35-6.86,26.82,26.82,0,0,1-1.61-9.93,29.19,29.19,0,0,1,1.86-10.33,24.88,24.88,0,0,1,5.77-8.89,27.59,27.59,0,0,1,10-6.21,40.66,40.66,0,0,1,14.28-2.29,54.67,54.67,0,0,1,9,.66,45.85,45.85,0,0,1,7.51,1.89,54.06,54.06,0,0,1,7.33,3.2v20.4a46.32,46.32,0,0,0-6.4-4.64,43.12,43.12,0,0,0-7.39-3.6,25.21,25.21,0,0,0-8.07-1.57,21.62,21.62,0,0,0-6.83.79,9.81,9.81,0,0,0-4.84,2.94,8.71,8.71,0,0,0,.37,10.91,16,16,0,0,0,5.84,3.47q3.72,1.36,8.32,2.94a84.51,84.51,0,0,1,9.37,3.46,29,29,0,0,1,7.52,4.77,19.27,19.27,0,0,1,5,7.06,26.2,26.2,0,0,1,1.74,10.07,29.7,29.7,0,0,1-3.48,14.31A25.19,25.19,0,0,1,132.66,228Q126.09,231.75,116.52,231.75Z"/><path class="cls-2" d="M159.87,230.63V141.9h35.77a46.71,46.71,0,0,1,16,2.46,21.52,21.52,0,0,1,10.56,7.85q3.78,5.39,3.79,14.3a16.43,16.43,0,0,1-2.78,9.84,22.15,22.15,0,0,1-6.7,6.19,50.44,50.44,0,0,1-7.33,3.66l-2.27-4.66a28.65,28.65,0,0,1,12.19,3,20.47,20.47,0,0,1,8.21,7.59,21.85,21.85,0,0,1,3,11.64q0,9.3-4.23,15.23a25.2,25.2,0,0,1-11.31,8.78,41.59,41.59,0,0,1-15.67,2.86Zm20.48-53.88h16.43a9.55,9.55,0,0,0,4-.86,7.32,7.32,0,0,0,3.1-2.73,9,9,0,0,0,1.2-4.92c0-3.64-.93-6.14-2.78-7.52a11.19,11.19,0,0,0-6.83-2.06H180.35Zm0,37.25h17.18a16.31,16.31,0,0,0,5.82-1,8.73,8.73,0,0,0,4.29-3.46,11.64,11.64,0,0,0,1.65-6.58,11.22,11.22,0,0,0-1-5.06,8,8,0,0,0-2.72-3.12,12.21,12.21,0,0,0-3.86-1.67,19.1,19.1,0,0,0-4.55-.53h-16.8Z"/></g></svg>