<svg xmlns="http://www.w3.org/2000/svg" width="16.062" height="21.417" viewBox="0 0 16.062 21.417"><defs><style>.a{fill:#ccc;}.b{fill:#fff;}</style></defs><path class="a" d="M207,654.739v-4.462a2.624,2.624,0,0,1,1.517-2.249h0a17.463,17.463,0,0,1,13.02,0h0a2.623,2.623,0,0,1,1.526,2.249v4.462a2.677,2.677,0,0,1-2.677,2.677H209.677A2.677,2.677,0,0,1,207,654.739ZM215.031,636a4.462,4.462,0,1,0,4.462,4.462A4.462,4.462,0,0,0,215.031,636Z" transform="translate(-207 -636)"/><path class="b" d="M224.031,650.278v4.462a2.677,2.677,0,0,1-2.677,2.677H216V646.771a17.452,17.452,0,0,1,6.514,1.258,2.623,2.623,0,0,1,1.517,2.249ZM216,636v8.924A4.462,4.462,0,0,0,216,636Z" transform="translate(-207.969 -636)"/></svg>