<svg xmlns="http://www.w3.org/2000/svg" width="19.698" height="20.756" viewBox="0 0 19.698 20.756"><defs><style>.a{fill:#ccc;}.b{fill:#fff;}</style></defs><g transform="translate(0)"><path class="a" d="M496.495,558.637l4.719-2.368L498.053,550l-4.719,2.368a2.641,2.641,0,0,0-1.171,3.522l.792,1.576a2.641,2.641,0,0,0,3.539,1.171Z" transform="translate(-491.89 -541.896)"/><path class="b" d="M502.051,555.167,498.89,548.9l.379-.194a4.4,4.4,0,0,0,1.849-1.761l3.24-5.687a.88.88,0,0,1,1.549,0l6.427,12.792a.88.88,0,0,1-.88,1.268l-6.5-.8a4.4,4.4,0,0,0-2.518.431Z" transform="translate(-492.727 -540.795)"/><path class="b" d="M497.12,559.593l4.314,3.636a1.62,1.62,0,0,0,1.761.211h0a1.62,1.62,0,0,0,.317-2.641l-3.249-2.8Z" transform="translate(-492.515 -542.853)"/><path class="b" d="M500.263,558.02,497.12,559.6l.326.273,3.152-1.585Z" transform="translate(-492.515 -542.855)"/></g></svg>