<svg xmlns="http://www.w3.org/2000/svg" width="140.111" height="87" viewBox="0 0 140.111 87"><defs><style>.a{fill:#2f0068;}.b{fill:#050037;}.c{fill:#540590;}.d{fill:#4b0083;}.e{fill:#ece5f2;}</style></defs><g transform="translate(-191.65 -2752)"><path class="a" d="M310.711,2752H220.943A14.723,14.723,0,0,0,206,2766.509v57.981A14.726,14.726,0,0,0,220.943,2839h89.768a14.726,14.726,0,0,0,14.943-14.508v-57.98A14.727,14.727,0,0,0,310.711,2752Z" transform="translate(6.107 0.001)"/><path class="b" d="M236.539,2790.76a4.943,4.943,0,0,1-4.13,5.432H206v-10.867h26.409a4.947,4.947,0,0,1,4.13,5.434Zm-16.3,16.3H206v10.867h13.965a5.434,5.434,0,1,0,0-10.867Zm43.471-1.522,57.871-51.35a14.778,14.778,0,0,0-2.228-1.738H212.684a14.777,14.777,0,0,0-4.347,4.292Z" transform="translate(6.107 1.997)"/><path class="c" d="M262.093,2758.219l-55.263,48.906a15.165,15.165,0,0,0,10.379,4.075h89.768a15.161,15.161,0,0,0,10.379-4.077Z" transform="translate(9.787 27.581)"/><path d="M214.53,2770.317l7.607,6.792a5.109,5.109,0,0,0,6.738,0l9.944-9.127-10.868-9.781Z" transform="translate(43.928 27.493)"/><path class="d" d="M265.472,2802.154l51.894-46.079A15.155,15.155,0,0,0,306.987,2752H217.219a15.155,15.155,0,0,0-10.379,4.075l51.894,46.079a5.106,5.106,0,0,0,6.738,0Z" transform="translate(9.832 0.002)"/><path class="e" d="M251.793,2768.866H210.852c-3.707,0-6.712-2.433-6.712-5.433s3-5.435,6.712-5.435h40.941c3.707,0,6.712,2.433,6.712,5.435S255.5,2768.866,251.793,2768.866Zm-10.2,16.3c.364-2.624-1.881-5.017-5.1-5.434H210.919c-3.707,0-6.712,2.433-6.712,5.433s3,5.435,6.712,5.435h25.84c3.083-.544,5.149-2.9,4.765-5.435Z" transform="translate(-12.49 26.607)"/></g></svg>