<svg xmlns="http://www.w3.org/2000/svg" width="240" height="50" viewBox="0 0 240 50"><defs><style>.a{fill:#ebac00;}.b,.c{fill:#fff;}.b{font-size:20px;font-family:Roboto-Medium, Roboto;font-weight:500;}</style></defs><g transform="translate(-1644 -1001)"><rect class="a" width="240" height="50" rx="2" transform="translate(1644 1001)"/><text class="b" transform="translate(1748 1015)"><tspan x="1.102" y="21">Publish</tspan></text><g transform="translate(1707.942 1011)"><path class="c" d="M14.508,18.55a.808.808,0,0,1,.808-.808h6.467V5.617A1.617,1.617,0,0,0,20.166,4H9.553L4,9.545V25.016a1.617,1.617,0,0,0,1.617,1.617h14.55a1.617,1.617,0,0,0,1.617-1.617V19.358H15.316A.808.808,0,0,1,14.508,18.55Zm-4.042-8.083H5.617v-.259l4.6-4.591h.251Z"/><path class="c" d="M28.684,16.3a.808.808,0,0,0-1.14,1.14l2.627,2.619H26v1.617h4.2L27.544,24.33a.808.808,0,1,0,1.14,1.14l4.591-4.6Z" transform="translate(-4.217 -2.321)"/></g></g></svg>