<svg xmlns="http://www.w3.org/2000/svg" width="19.178" height="17.432" viewBox="0 0 19.178 17.432"><defs><style>.a{fill:#fff;}.b{fill:#ccc;}</style></defs><path class="a" d="M702.589,2672.431h0a2.42,2.42,0,0,1-2.421-2.42v-12.59a2.421,2.421,0,0,1,2.421-2.421h0a2.421,2.421,0,0,1,2.421,2.421v12.589a2.421,2.421,0,0,1-2.421,2.421Zm-4.747-2.421v-6.779a2.421,2.421,0,0,0-2.421-2.421h0a2.421,2.421,0,0,0-2.421,2.421v6.779a2.421,2.421,0,0,0,2.421,2.421h0a2.42,2.42,0,0,0,2.421-2.42Z" transform="translate(-685.832 -2655)"/><path class="b" d="M688.421,2672.621h0A2.421,2.421,0,0,1,686,2670.2v-3.874a2.421,2.421,0,0,1,2.421-2.421h0a2.421,2.421,0,0,1,2.421,2.421v3.874a2.421,2.421,0,0,1-2.421,2.421ZM695.463,2661a2.411,2.411,0,0,0-2.3,2.411v6.779a2.411,2.411,0,0,0,2.3,2.411Z" transform="translate(-686 -2655.189)"/></svg>