<svg xmlns="http://www.w3.org/2000/svg" xmlns:xlink="http://www.w3.org/1999/xlink" width="193.5" height="79.205" viewBox="0 0 193.5 79.205"><defs><style>.a{fill:none;stroke:#2f0068;stroke-miterlimit:10;stroke-width:1.5px;}.b{fill:url(#a);}.c{fill:#fff;}</style><radialGradient id="a" cx="0.5" cy="0.5" r="1.365" gradientTransform="translate(0.303) scale(0.395 1)" gradientUnits="objectBoundingBox"><stop offset="0" stop-color="#4b0083"/><stop offset="0.49" stop-color="#490081"/><stop offset="0.667" stop-color="#46007a"/><stop offset="0.793" stop-color="#3f006e"/><stop offset="0.895" stop-color="#35005d"/><stop offset="0.981" stop-color="#290047"/><stop offset="1" stop-color="#260042"/></radialGradient></defs><g transform="translate(-172.415 -303.817)"><path class="a" d="M333.532,304.567H204.8c-17.47,0-31.633,13.415-31.633,29.964h0c0,16.549,14.163,29.964,31.633,29.964h98.15a3.493,3.493,0,0,1,3.02,1.738l7.219,12.432a3.492,3.492,0,0,0,6.1-.1l6.547-12.222a3.491,3.491,0,0,1,3.078-1.843h4.623c17.47,0,31.633-13.416,31.633-29.964h0C365.165,317.982,351,304.567,333.532,304.567Z" transform="translate(0 0)"/><path class="b" d="M336.412,311.645H209.729c-17.192,0-31.129,13.2-31.129,29.487h0c0,16.285,13.937,29.487,31.129,29.487h96.586a3.436,3.436,0,0,1,2.972,1.71l7.1,12.234a3.436,3.436,0,0,0,6-.1l6.442-12.028a3.436,3.436,0,0,1,3.029-1.814h4.55c17.192,0,31.129-13.2,31.129-29.487h0C367.541,324.846,353.6,311.645,336.412,311.645Z" transform="translate(-2.497 -3.252)"/><g transform="translate(192.546 325.24)"><g transform="translate(0 0)"><path class="c" d="M216.666,367.427a22.649,22.649,0,0,1-2.849-.163,14.734,14.734,0,0,1-2.353-.489,12.525,12.525,0,0,1-2.106-.848v-5.02a9.947,9.947,0,0,0,3.221,1.826,10.451,10.451,0,0,0,3.406.62,3.584,3.584,0,0,0,2.183-.571,2.042,2.042,0,0,0,.758-1.744,1.7,1.7,0,0,0-.7-1.418,6.693,6.693,0,0,0-1.842-.945q-1.146-.408-2.57-.929a11.355,11.355,0,0,1-1.765-.75,6.1,6.1,0,0,1-1.548-1.157,5.147,5.147,0,0,1-1.084-1.711,6.706,6.706,0,0,1-.4-2.478,7.286,7.286,0,0,1,.464-2.575,6.2,6.2,0,0,1,1.44-2.217,6.883,6.883,0,0,1,2.493-1.549,10.119,10.119,0,0,1,3.561-.57,13.747,13.747,0,0,1,2.246.163,11.6,11.6,0,0,1,1.873.472,13.166,13.166,0,0,1,1.827.8v5.085a11.77,11.77,0,0,0-1.595-1.157,10.835,10.835,0,0,0-1.842-.9,6.273,6.273,0,0,0-2.013-.391,5.368,5.368,0,0,0-1.7.2,2.462,2.462,0,0,0-1.208.734,2.175,2.175,0,0,0,.093,2.722,4,4,0,0,0,1.455.864q.929.342,2.075.734a21.258,21.258,0,0,1,2.338.864,7.14,7.14,0,0,1,1.873,1.19,4.787,4.787,0,0,1,1.239,1.76,6.538,6.538,0,0,1,.434,2.51,7.428,7.428,0,0,1-.867,3.57,6.317,6.317,0,0,1-2.508,2.543A8.069,8.069,0,0,1,216.666,367.427Z" transform="translate(-209.017 -343.696)"/><path class="c" d="M247.535,371.865q-3.964,0-5.961-2.233t-2-6.569q0-4.661,2.028-6.7a8.015,8.015,0,0,1,5.93-2.038,9.474,9.474,0,0,1,4.413.929,6.03,6.03,0,0,1,2.694,2.853,11.594,11.594,0,0,1,.914,4.955q0,4.336-2.075,6.569A7.717,7.717,0,0,1,247.535,371.865Zm0-3.879a3.079,3.079,0,0,0,1.9-.571,3.449,3.449,0,0,0,1.146-1.662,8.115,8.115,0,0,0,.387-2.689,8.663,8.663,0,0,0-.387-2.885,2.865,2.865,0,0,0-1.161-1.532,3.561,3.561,0,0,0-1.889-.473,3.431,3.431,0,0,0-1.92.489,2.861,2.861,0,0,0-1.1,1.548,9.23,9.23,0,0,0-.356,2.852,6.706,6.706,0,0,0,.821,3.7A2.86,2.86,0,0,0,247.535,367.986Z" transform="translate(-223.056 -348.1)"/><path class="c" d="M279.541,372.336a9.668,9.668,0,0,1-3.84-.717,5.581,5.581,0,0,1-2.6-2.2,7.184,7.184,0,0,1-.929-3.863v-10.2h4.615v9.812a3.478,3.478,0,0,0,.665,2.331,3.342,3.342,0,0,0,4.258,0,3.536,3.536,0,0,0,.65-2.331v-9.812H286.7v10.2q0,3.521-1.92,5.15A7.828,7.828,0,0,1,279.541,372.336Z" transform="translate(-238.03 -348.571)"/><path class="c" d="M303.735,356.366a10.72,10.72,0,0,1,1.549-.668,18.552,18.552,0,0,1,2.106-.6q1.145-.26,2.307-.424a15.627,15.627,0,0,1,2.152-.163,10.052,10.052,0,0,1,3.592.57,4.483,4.483,0,0,1,2.276,1.842,6.513,6.513,0,0,1,.789,3.456v11.083h-4.614V361.354a3.677,3.677,0,0,0-.17-1.141,2.45,2.45,0,0,0-.511-.9,2.264,2.264,0,0,0-.929-.586,4.227,4.227,0,0,0-1.424-.212,5.844,5.844,0,0,0-1.424.179,5.071,5.071,0,0,0-1.084.375v12.387h-4.615Z" transform="translate(-252.531 -348.184)"/><path class="c" d="M342.488,366.573a12.612,12.612,0,0,1-3.36-.424,6.518,6.518,0,0,1-2.648-1.419,6.608,6.608,0,0,1-1.749-2.722,12.569,12.569,0,0,1-.635-4.3,9.769,9.769,0,0,1,1.874-6.324,6.8,6.8,0,0,1,5.621-2.315q.5,0,1.3.082a6.677,6.677,0,0,1,1.672.408,3.844,3.844,0,0,1,1.549,1.108l-.929,1.5v-9.356h4.583v18.972a3.612,3.612,0,0,1-.619,2.1,4.914,4.914,0,0,1-1.657,1.483,8.9,8.9,0,0,1-2.338.9A11.457,11.457,0,0,1,342.488,366.573Zm.186-4.075a4.49,4.49,0,0,0,1.811-.31,1,1,0,0,0,.7-.929v-7.6a5.115,5.115,0,0,0-1.192-.505,4.5,4.5,0,0,0-1.223-.18,4.819,4.819,0,0,0-2.2.456,2.879,2.879,0,0,0-1.347,1.532,7.685,7.685,0,0,0-.449,2.9,7.241,7.241,0,0,0,.372,2.461,3.15,3.15,0,0,0,1.223,1.6A4.091,4.091,0,0,0,342.674,362.5Z" transform="translate(-266.479 -342.809)"/></g></g><g transform="translate(279.145 325.939)"><g transform="translate(0 0)"><path class="c" d="M369.209,366.66V344.1H378.3a11.9,11.9,0,0,1,4.064.625,5.466,5.466,0,0,1,2.683,2,6.2,6.2,0,0,1,.963,3.636,4.181,4.181,0,0,1-.706,2.5,5.641,5.641,0,0,1-1.7,1.573,12.737,12.737,0,0,1-1.863.93l-.579-1.183a7.251,7.251,0,0,1,3.1.761,5.212,5.212,0,0,1,2.088,1.928,5.562,5.562,0,0,1,.755,2.959,6.506,6.506,0,0,1-1.076,3.872,6.4,6.4,0,0,1-2.876,2.232,10.539,10.539,0,0,1-3.984.727Zm5.2-13.7h4.177a2.444,2.444,0,0,0,1.028-.22,1.83,1.83,0,0,0,.787-.693,2.281,2.281,0,0,0,.3-1.251,2.243,2.243,0,0,0-.707-1.911,2.834,2.834,0,0,0-1.735-.524h-3.856Zm0,9.47h4.37a4.179,4.179,0,0,0,1.478-.254,2.237,2.237,0,0,0,1.093-.88,2.978,2.978,0,0,0,.417-1.674,2.836,2.836,0,0,0-.257-1.285,2.038,2.038,0,0,0-.691-.795,3.118,3.118,0,0,0-.98-.423,4.827,4.827,0,0,0-1.157-.136h-4.273Z" transform="translate(-369.209 -344.102)"/><path class="c" d="M413.353,371.306q-4.113,0-6.185-2.317t-2.072-6.815q0-4.836,2.1-6.95t6.153-2.114a9.823,9.823,0,0,1,4.579.964,6.252,6.252,0,0,1,2.795,2.959,12.029,12.029,0,0,1,.948,5.141q0,4.5-2.153,6.815A8.007,8.007,0,0,1,413.353,371.306Zm0-4.025a3.2,3.2,0,0,0,1.976-.592,3.582,3.582,0,0,0,1.189-1.725,8.42,8.42,0,0,0,.4-2.79,8.988,8.988,0,0,0-.4-2.993,2.972,2.972,0,0,0-1.205-1.589,3.7,3.7,0,0,0-1.96-.49,3.566,3.566,0,0,0-1.992.507,2.97,2.97,0,0,0-1.141,1.607,9.564,9.564,0,0,0-.369,2.959,6.956,6.956,0,0,0,.851,3.839A2.967,2.967,0,0,0,413.353,367.282Z" transform="translate(-385.696 -348.241)"/><path class="c" d="M444.231,364.455l-4.434,6.832h-5.044l7.293-10.045Zm7.968,6.832h-5.686l-11.6-17.113h5.655Zm-9.382-10.112,4.562-7h5.077L445,364.455Z" transform="translate(-399.32 -348.729)"/></g></g><g transform="translate(334.394 326.302)"><path class="c" d="M486.37,381.182a.947.947,0,0,1-.947-.947V375.5a.947.947,0,0,1,1.894,0v4.735A.947.947,0,0,1,486.37,381.182Z" transform="translate(-477.847 -358.453)"/><path class="c" d="M485.9,377.226a8.523,8.523,0,0,0,1.42-.132v-1.288a.945.945,0,0,0-.218-.587,6.643,6.643,0,0,1-1.2.114h-.322a.944.944,0,0,0-.151.493v1.392Z" transform="translate(-477.847 -358.759)"/><path class="c" d="M476.143,355.189V348.56a3.788,3.788,0,0,1,7.576,0v6.629a3.788,3.788,0,0,1-7.576,0Zm7.576,11.364a.947.947,0,0,0-.947-.947H477.09a.947.947,0,1,0,0,1.894h5.682A.947.947,0,0,0,483.719,366.553Zm4.735-12.311a.947.947,0,1,0-1.894,0,6.629,6.629,0,1,1-13.258,0,.947.947,0,1,0-1.894,0,8.523,8.523,0,0,0,17.047,0Z" transform="translate(-471.408 -344.772)"/></g></g></svg>