<svg xmlns="http://www.w3.org/2000/svg" width="21.071" height="21.804" viewBox="0 0 21.071 21.804"><defs><style>.a{fill:#fff;}.b{fill:#ccc;}</style></defs><path class="a" d="M309.081,2287.592a1.015,1.015,0,0,1-1.081-.931v-13.47a2.9,2.9,0,0,1,2.39-2.69l7.57-1.778a3.669,3.669,0,0,1,2.822.474,2.679,2.679,0,0,1,1.277,2.217v12.455a1.094,1.094,0,0,1-2.163,0v-12.455a.884.884,0,0,0-.409-.761,1.219,1.219,0,0,0-.954-.169l-7.57,1.777a.961.961,0,0,0-.8.931v13.47A1.015,1.015,0,0,1,309.081,2287.592Z" transform="translate(-300.988 -2268.625)"/><path class="b" d="M307.923,2291.41a5.3,5.3,0,0,1-2.1.495c-2.163,0-4.867-1.131-4.207-4.18.93-4.3,9.073-3.029,9.073.878C310.691,2290.077,308.669,2291.087,307.923,2291.41Zm14.665-5.836c0-3.918-8.143-5.18-9.073-.879-.66,3.029,2.066,4.18,4.207,4.18a5.3,5.3,0,0,0,2.1-.495C320.565,2288.058,322.587,2287.048,322.587,2285.574Z" transform="translate(-301.517 -2270.1)"/></svg>