<svg xmlns="http://www.w3.org/2000/svg" width="26.234" height="18.763" viewBox="0 0 26.234 18.763"><defs><style>.a{fill:#fff;}.b{fill:#ccc;}</style></defs><path class="a" d="M887.35,2289.473a3.649,3.649,0,0,1-3.765-3.52v-7.467a.805.805,0,0,0-.81-.779.668.668,0,0,0-.57.181.61.61,0,0,0-.205.458,3.625,3.625,0,0,1-1.269,2.728,4.162,4.162,0,0,1-3,.995,1.415,1.415,0,0,1-1.3-1.473,1.447,1.447,0,0,1,1.506-1.29,1.109,1.109,0,0,0,.776-.256.923.923,0,0,0,.331-.7,3.285,3.285,0,0,1,1.141-2.443,3.882,3.882,0,0,1,6.424,2.593v7.467a.8.8,0,0,0,1.6,0v-11.733a3.774,3.774,0,0,1,7.531,0v8.533a.8.8,0,0,0,1.6,0,3.649,3.649,0,0,1,3.765-3.52,1.39,1.39,0,1,1,0,2.774.774.774,0,0,0-.8.747,3.774,3.774,0,0,1-7.531,0v-8.533a.8.8,0,0,0-1.6,0v11.733a3.424,3.424,0,0,1-1.13,2.5,3.923,3.923,0,0,1-2.692,1.011Z" transform="translate(-876.349 -2270.711)"/><path class="b" d="M881.152,2280a3.933,3.933,0,0,1-3.423,1.45,1.422,1.422,0,0,1-1.369-1.45Zm16.134,2.133a.8.8,0,0,1-1.6,0V2280h-2.967v2.133a3.774,3.774,0,0,0,7.531,0,.774.774,0,0,1,.8-.747,1.437,1.437,0,0,0,1.483-1.386h-4.461A3.344,3.344,0,0,0,897.286,2282.133ZM888.158,2280v5.333a.8.8,0,0,1-1.6,0V2280h-2.967v5.333a3.774,3.774,0,0,0,7.531,0V2280Z" transform="translate(-876.359 -2270.091)"/></svg>